<?xml version="1.0" encoding="utf-8"?>
<svg viewBox="0 203.418 307.056 158.214" xmlns="http://www.w3.org/2000/svg">
  <path d="M 99.1 331.291 C 100.678 334.053 102.35 336.993 104.061 339.56 C 104.796 340.663 106.859 344.053 106.267 342.868 C 101.722 333.779 82.966 310.492 79.806 305.933 C 67.76 288.559 57.677 270.491 46.73 252.46 C 44.778 249.245 35.169 236.45 38.461 231.512 C 41.246 227.334 51.68 228.89 55.55 229.858 C 73.661 234.386 91.457 246.858 105.715 258.524 C 111.323 263.112 115.598 267.856 120.599 272.857 C 127.396 279.653 120.719 271.731 124.458 276.716 C 124.926 277.339 126.761 277.937 126.112 278.369 C 116.567 284.733 102.553 287.066 91.934 291.049 C 83.738 294.122 76.208 298.032 68.229 301.523 C 58.162 305.927 68.852 300.377 60.511 305.382 C 59.102 306.227 55.286 309.014 56.101 307.587 C 71.375 280.857 89.931 256.116 111.228 234.819" style="fill: rgb(216, 216, 216); paint-order: stroke; fill-opacity: 0; stroke: rgb(0, 0, 0); stroke-width: 3px; vector-effect: non-scaling-stroke;" transform="matrix(0.667655, 0.744471, -0.744471, 0.667655, 240.127716, 33.971615)"/>
  <path d="M 173.608 303.649 C 175.587 297.711 176.032 291.326 174.699 285.103 C 174.264 283.076 173.632 281.096 173.062 279.103 C 172.682 277.771 170.187 274.665 171.426 275.284 C 176.405 277.774 181.138 282.672 185.063 286.194 C 189.468 290.148 193.812 294.17 198.154 298.194 C 201.267 301.08 204.362 303.985 207.427 306.922 C 212.827 312.097 210.204 309.709 215.609 316.195 C 220.181 321.681 241.912 339.792 225.973 345.105 C 219.659 347.21 213.48 344.42 209.063 339.65 C 197.527 327.191 189.755 310.28 183.972 294.376 C 181.905 288.694 179.832 282.839 178.517 276.921 C 178.238 275.666 176.821 273.677 177.971 273.102 C 181.259 271.459 192.409 282.666 195.427 279.648 C 197.368 277.707 194.414 266.79 195.972 266.011 C 198.884 264.555 209.821 269.072 210.7 268.193 C 212.576 266.317 209.497 264.92 213.973 264.92 C 215.914 264.92 219.307 264.587 221.064 265.466 C 224.847 267.357 222.155 274.544 222.155 278.012 C 222.155 279.753 221.609 281.188 221.609 282.921 C 221.609 283.671 221.399 285.773 221.064 285.103 C 214.033 271.041 225.973 255.613 225.973 242.01" style="fill: rgb(216, 216, 216); paint-order: stroke; fill-opacity: 0; stroke: rgb(0, 0, 0); stroke-width: 3px; vector-effect: non-scaling-stroke;" transform="matrix(0.667655, 0.744471, -0.744471, 0.667655, 285.746124, -52.260933)"/>
</svg>